HIERARCHY
ROOT root
{
	OFFSET 0.000000 0.000000 0.000000
	CHANNELS 6 Xposition Yposition Zposition Zrotation Yrotation Xrotation
	JOINT lhip
	{
		OFFSET 0.058581 -0.082280 -0.017664
		CHANNELS 3 Zrotation Yrotation Xrotation
		JOINT lknee
		{
			OFFSET 0.043451 -0.386469 0.008037
			CHANNELS 3 Zrotation Yrotation Xrotation
			JOINT lankle
			{
				OFFSET -0.014790 -0.426874 -0.037428
				CHANNELS 3 Zrotation Yrotation Xrotation
				JOINT ltoe
				{
					OFFSET 0.041054 -0.060286 0.122042
					CHANNELS 3 Zrotation Yrotation Xrotation
					End Site
					{
						OFFSET 0.000000 0.000000 0.000000
					}
				}
			}
		}
	}
	JOINT rhip
	{
		OFFSET -0.060310 -0.090513 -0.013543
		CHANNELS 3 Zrotation Yrotation Xrotation
		JOINT rknee
		{
			OFFSET -0.043257 -0.383688 -0.004843
			CHANNELS 3 Zrotation Yrotation Xrotation
			JOINT rankle
			{
				OFFSET 0.019056 -0.420046 -0.034562
				CHANNELS 3 Zrotation Yrotation Xrotation
				JOINT rtoe
				{
					OFFSET -0.034840 -0.062106 0.130323
					CHANNELS 3 Zrotation Yrotation Xrotation
					End Site
					{
						OFFSET 0.000000 0.000000 0.000000
					}
				}
			}
		}
	}
	JOINT lowerback
	{
		OFFSET 0.004439 0.124404 -0.038385
		CHANNELS 3 Zrotation Yrotation Xrotation
		JOINT upperback
		{
			OFFSET 0.004488 0.137956 0.026820
			CHANNELS 3 Zrotation Yrotation Xrotation
			JOINT chest
			{
				OFFSET -0.002265 0.056032 0.002855
				CHANNELS 3 Zrotation Yrotation Xrotation
				JOINT lowerneck
				{
					OFFSET -0.013390 0.211636 -0.033468
					CHANNELS 3 Zrotation Yrotation Xrotation
					JOINT upperneck
					{
						OFFSET 0.010113 0.088937 0.050410
						CHANNELS 3 Zrotation Yrotation Xrotation
						End Site
						{
							OFFSET 0.000000 0.000000 0.000000
						}
					}
				}
				JOINT lclavicle
				{
					OFFSET 0.071702 0.114000 -0.018898
					CHANNELS 3 Zrotation Yrotation Xrotation
					JOINT lshoulder
					{
						OFFSET 0.122921 0.045205 -0.019046
						CHANNELS 3 Zrotation Yrotation Xrotation
						JOINT lelbow
						{
							OFFSET 0.255332 -0.015649 -0.022946
							CHANNELS 3 Zrotation Yrotation Xrotation
							JOINT lwrist
							{
								OFFSET 0.265709 0.012698 -0.007375
								CHANNELS 3 Zrotation Yrotation Xrotation
								End Site
								{
									OFFSET 0.000000 0.000000 0.000000
								}
							}
						}
					}
				}
				JOINT rclavicle
				{
					OFFSET -0.082954 0.112472 -0.023707
					CHANNELS 3 Zrotation Yrotation Xrotation
					JOINT rshoulder
					{
						OFFSET -0.113228 0.046853 -0.008472
						CHANNELS 3 Zrotation Yrotation Xrotation
						JOINT relbow
						{
							OFFSET -0.260127 -0.014369 -0.031269
							CHANNELS 3 Zrotation Yrotation Xrotation
							JOINT rwrist
							{
								OFFSET -0.269108 0.006794 -0.006027
								CHANNELS 3 Zrotation Yrotation Xrotation
								End Site
								{
									OFFSET 0.000000 0.000000 0.000000
								}
							}
						}
					}
				}
			}
		}
	}
}
MOTION
Frames: 10
Frame Time: 0.033333
-0.357297 0.348914 0.987744 -5.672447 2.843122 82.168477 1.686565 11.526282 14.439545 -5.249752 13.861835 -4.747679 4.352837 20.529546 -16.732588 0.000000 -0.000000 0.000000 -4.687362 -5.127647 -4.771905 -5.453811 -14.126798 32.125270 5.493435 -18.470428 -11.194828 0.000000 -0.000000 0.000000 1.094837 -2.055137 2.497891 1.061135 -1.662442 5.294840 -0.869736 -3.137497 2.621790 1.602654 -4.455421 -9.239117 -2.565445 -5.541757 12.606759 -27.853370 0.850866 2.839427 -56.126878 -9.821949 7.129454 10.192652 -18.321784 2.278509 -8.392717 -6.790498 -3.740568 28.251143 0.667607 -0.555911 50.902951 2.641439 13.534187 -12.429328 21.322579 -2.302699 15.586523 3.542391 -3.729597 
-0.353148 0.349119 0.987452 -4.874696 3.013563 82.068691 1.676454 11.395269 14.574418 -5.359149 13.349019 -4.879187 4.496955 20.372199 -16.833555 0.000000 -0.000000 0.000000 -4.875064 -5.105918 -5.148133 -5.655419 -14.178677 33.230806 5.598380 -18.718980 -10.691771 0.000000 -0.000000 0.000000 0.986850 -2.053403 2.499185 1.031202 -1.566180 5.363697 -0.955888 -3.092267 2.627358 1.624757 -4.844726 -9.124109 -2.525897 -6.109194 12.680354 -27.881959 0.937623 2.903483 -55.970469 -9.741890 6.984690 10.105691 -17.853617 2.381398 -9.313332 -6.647163 -3.747684 28.351560 0.765131 -0.620302 50.851290 2.841988 13.438056 -12.689750 21.015467 -2.389504 16.153832 3.292898 -3.332460 
-0.349101 0.349281 0.987183 -4.040972 3.184448 81.978284 1.667688 11.212346 14.687438 -5.463962 12.820393 -4.951346 4.636574 20.250087 -16.957492 0.000000 -0.000000 0.000000 -5.041990 -5.017476 -5.451570 -5.833430 -14.206196 34.231521 5.657323 -18.996124 -10.202660 0.000000 -0.000000 0.000000 0.864458 -2.047445 2.469626 1.030720 -1.465387 5.460696 -1.029379 -3.030841 2.635410 1.667551 -5.212431 -8.998332 -2.503391 -6.732486 12.757987 -27.864615 1.026198 3.006722 -55.724845 -9.610798 6.912961 9.911256 -17.735188 2.653217 -10.222202 -6.604641 -3.782273 28.466526 0.900114 -0.611507 50.708361 2.972647 13.398733 -12.900024 20.958406 -2.444773 16.406043 3.268685 -2.959692 
-0.345051 0.349544 0.986951 -3.184061 3.326973 81.867447 1.629875 11.032649 14.785564 -5.535619 12.223040 -4.932825 4.801697 20.192794 -17.072665 0.000000 -0.000000 0.000000 -5.223726 -4.936565 -5.707335 -6.030931 -14.129977 35.215846 5.702600 -19.306764 -9.617157 0.000000 -0.000000 0.000000 0.746099 -2.021493 2.518500 1.012427 -1.355548 5.481259 -1.100817 -2.973130 2.681712 1.700577 -5.606425 -8.838420 -2.428593 -7.311326 12.777638 -27.824572 1.092226 3.112508 -55.465033 -9.474489 6.880100 9.669038 -17.745802 2.714309 -9.686685 -6.401409 -3.970623 28.549642 1.041749 -0.597182 50.649523 3.018140 13.394530 -13.113415 21.076561 -3.030214 14.952118 3.479454 -2.830133 
-0.341040 0.349961 0.986699 -2.322833 3.434875 81.762457 1.563673 10.835519 14.822396 -5.594400 11.521151 -4.812789 5.012503 20.231775 -17.193914 0.000000 -0.000000 0.000000 -5.412294 -4.858965 -6.091816 -6.246760 -13.867374 36.375371 5.730372 -19.694482 -8.908520 0.000000 -0.000000 0.000000 0.610730 -1.981437 2.626209 0.992669 -1.245264 5.392520 -1.178417 -2.907513 2.794693 1.711797 -6.038678 -8.641970 -2.293188 -7.837635 12.687266 -27.823960 1.137626 3.128518 -55.098982 -9.494490 6.831469 9.275885 -17.529820 2.471916 -7.367704 -6.031521 -4.308554 28.660009 1.153425 -0.645330 50.608698 3.059994 13.504255 -13.276019 21.197923 -3.704387 11.837961 3.781227 -2.524170 
-0.337086 0.350243 0.986369 -1.460292 3.534320 81.656421 1.510029 10.592325 14.896747 -5.690190 10.774437 -4.732799 5.245512 20.307143 -17.301585 0.000000 -0.000000 0.000000 -5.631529 -4.727902 -6.629963 -6.404636 -13.510033 37.745654 5.794641 -20.151786 -7.981822 0.000000 -0.000000 0.000000 0.463116 -2.007971 2.686932 0.972556 -1.136919 5.309195 -1.227857 -2.837295 2.979125 1.666012 -6.557932 -8.478067 -2.113655 -8.194093 12.591762 -27.808332 1.165367 3.142536 -54.796367 -9.608845 6.828509 8.995257 -17.294175 1.453415 -3.168322 -5.690314 -4.892925 28.771317 1.291832 -0.703929 50.505506 3.196338 13.744507 -13.238032 21.266149 -4.396193 7.827597 4.283494 -1.794939 
-0.333157 0.350583 0.986029 -0.577149 3.621081 81.518788 1.468436 10.377802 15.035928 -5.790070 9.974650 -4.684659 5.497754 20.361317 -17.425109 0.000000 -0.000000 0.000000 -5.887091 -4.562945 -7.327725 -6.590433 -13.145687 39.440037 5.819705 -20.613921 -6.924535 0.000000 -0.000000 0.000000 0.316424 -2.074080 2.813448 0.962315 -1.002681 5.215545 -1.271841 -2.798048 3.151119 1.631238 -7.052657 -8.370675 -2.023280 -8.454597 12.589837 -27.911795 1.216591 3.172922 -54.462779 -9.635339 6.923178 8.971249 -17.320064 0.662641 1.810757 -5.332300 -4.757389 29.028102 1.441121 -0.788277 50.225840 3.324876 14.032650 -13.069683 21.381820 -5.010164 3.457017 4.997972 -0.806342 
-0.329455 0.350991 0.985665 0.344931 3.708849 81.364717 1.492681 10.178928 15.235448 -5.950527 9.179975 -4.692302 5.673614 20.293319 -17.545293 0.000000 -0.000000 0.000000 -6.110115 -4.287525 -8.178816 -6.925037 -12.898582 41.433090 5.789393 -21.071791 -5.690040 0.000000 -0.000000 0.000000 0.131240 -2.212866 2.985273 0.989342 -0.840665 5.209987 -1.293162 -2.793253 3.241860 1.619940 -7.416769 -8.352206 -2.021506 -8.632432 12.678636 -28.005837 1.315469 3.186821 -54.115183 -9.550658 7.028522 9.202444 -17.707790 0.414489 4.712456 -5.269709 -4.348974 29.261034 1.558244 -0.940143 49.847769 3.517750 14.195624 -12.838429 21.516855 -5.357066 1.753528 5.308511 -0.625364 
-0.326129 0.351295 0.985377 1.313237 3.802764 81.237092 1.537590 9.909667 15.454361 -6.129749 8.466154 -4.777810 5.781917 20.127319 -17.638090 0.000000 -0.000000 0.000000 -6.281860 -3.833576 -9.147406 -7.243069 -12.729200 43.490318 5.549528 -21.571152 -4.272460 0.000000 -0.000000 0.000000 -0.084152 -2.437160 3.101590 1.037891 -0.655188 5.333170 -1.320304 -2.810708 3.254353 1.688545 -7.618602 -8.426107 -2.090842 -8.705310 12.860853 -28.055232 1.507206 3.173998 -53.652950 -9.491144 6.984600 9.584825 -18.281785 -0.040373 4.664830 -5.451025 -4.320620 29.423415 1.627264 -1.154672 49.543903 3.835725 14.321750 -12.701956 21.608701 -5.784816 3.299817 5.134718 -1.248945 
-0.323222 0.351568 0.985319 2.379764 3.926903 81.125521 1.627106 9.622806 15.634135 -6.267325 7.783156 -4.818030 5.830370 19.902075 -17.663539 0.000000 -0.000000 0.000000 -6.365380 -3.399572 -10.031522 -7.359388 -12.491504 45.258465 5.025757 -21.812107 -3.174891 0.000000 -0.000000 0.000000 -0.297264 -2.639970 3.201438 1.107085 -0.531103 5.498163 -1.342810 -2.839778 3.233466 1.804607 -7.573388 -8.499558 -2.214041 -8.653107 13.121507 -28.037768 1.633998 3.161385 -53.163159 -9.493509 6.944021 9.972172 -18.795623 -0.444898 3.562682 -5.770057 -4.582076 29.559186 1.702454 -1.310266 49.339755 4.191248 14.451915 -12.654324 21.587217 -5.952013 5.520113 4.965691 -1.812021 
